<svg id="Layer_1" data-name="Layer 1" xmlns="http://www.w3.org/2000/svg" viewBox="0 0 368 134"><defs><style>.cls-1{fill:#181c23;}.cls-2{fill:#d83039;}.cls-3{fill:#fff;}</style></defs><rect class="cls-1" x="0.72" y="0.76" width="99.35" height="132.47" rx="10.56"/><rect class="cls-2" x="66.95" y="33.89" width="16.56" height="16.56" rx="1.99"/><path class="cls-3" d="M33.83,48.46V35.88a2,2,0,0,1,2-2H48.4a2,2,0,0,0,2-2V19.34a2,2,0,0,0-2-2H19.32a2,2,0,0,0-2,2V81.58a2,2,0,0,0,2,2H31.84a2,2,0,0,0,2-2V69a2,2,0,0,1,2-2H48.4a2,2,0,0,0,2-2V52.44a2,2,0,0,0-2-2H35.83A2,2,0,0,1,33.83,48.46Z"/><path class="cls-3" d="M50.39,69V81.57a2,2,0,0,0,2,2H65a2,2,0,0,1,2,2V114.7a2,2,0,0,0,2,2H81.52a2,2,0,0,0,2-2V69a2,2,0,0,0-2-2H52.39A2,2,0,0,0,50.39,69Z"/><rect class="cls-3" x="33.83" y="100.13" width="16.56" height="16.56" rx="1.99"/><polygon class="cls-1" points="126.93 96.36 138.94 96.36 138.94 74.36 160.02 74.36 160.02 64.28 138.94 64.28 138.94 53.12 162.64 53.12 162.64 43.03 126.93 43.03 126.93 96.36"/><rect class="cls-1" x="174.18" y="55.89" width="11.47" height="40.48"/><path class="cls-1" d="M179.88,37.42a6.77,6.77,0,0,0-4.83,11.7l0,0a7.3,7.3,0,0,0,9.62,0,7,7,0,0,0,0-9.9l0,0A6.93,6.93,0,0,0,179.88,37.42Z"/><path class="cls-1" d="M268,87.25a23.07,23.07,0,0,1-3.81.35c-2.56,0-4.27-.72-5.11-2.16a11.45,11.45,0,0,1-1.27-5.77V65.43h13.77V55.89H257.84V44l-11.47,1.85v34A32.6,32.6,0,0,0,247.1,87a13.33,13.33,0,0,0,2.58,5.5A12.31,12.31,0,0,0,254.6,96a20.64,20.64,0,0,0,7.78,1.27,27.67,27.67,0,0,0,6.23-.61,33.54,33.54,0,0,0,4.62-1.47l-1.62-8.86A20.87,20.87,0,0,1,268,87.25Z"/><path class="cls-1" d="M311.67,59.26a13.16,13.16,0,0,0-5.43-3.3,26.61,26.61,0,0,0-8.46-1.16c-1.34,0-2.66.08-4,.19s-2.55.29-3.73.47-2.27.39-3.27.61-1.84.45-2.5.65L285.74,66a25.31,25.31,0,0,1,4.93-1.19,38.43,38.43,0,0,1,5.77-.42c2.92,0,5,.58,6.16,1.77a6.34,6.34,0,0,1,1.77,4.7V71.9a15.76,15.76,0,0,0-2.81-.5,33.28,33.28,0,0,0-4-.2,29.79,29.79,0,0,0-6.38.66A16.89,16.89,0,0,0,285.71,74a10.88,10.88,0,0,0-3.81,3.93,11.89,11.89,0,0,0-1.42,6,14.44,14.44,0,0,0,1.23,6.24,10.5,10.5,0,0,0,3.54,4.11,15.35,15.35,0,0,0,5.5,2.27,34.8,34.8,0,0,0,7.12.7,66.14,66.14,0,0,0,10.62-.74c2.93-.48,5.21-.91,6.85-1.27V71.34a25.08,25.08,0,0,0-.85-6.85A12.14,12.14,0,0,0,311.67,59.26Zm-7.27,28.8c-.81.12-1.64.19-2.47.23-1,0-2.1.08-3.23.08a10.18,10.18,0,0,1-5-1,4,4,0,0,1-1.81-3.75,4.06,4.06,0,0,1,.61-2.3,4.47,4.47,0,0,1,1.7-1.47,8.45,8.45,0,0,1,2.5-.73,27.46,27.46,0,0,1,3-.19c.85,0,1.7.06,2.54.15s1.61.21,2.08.31Z"/><path class="cls-1" d="M366.12,67.47a18.93,18.93,0,0,0-3.39-6.66,14.77,14.77,0,0,0-5.54-4.27,18.13,18.13,0,0,0-7.62-1.5,20.29,20.29,0,0,0-4.46.46,21,21,0,0,0-4,1.31V36.65l-11.47,1.84V95.06c1,.31,2.21.6,3.54.89s2.73.52,4.19.73,2.95.36,4.47.5,3,.19,4.35.19a24.86,24.86,0,0,0,8.92-1.5,17.77,17.77,0,0,0,10.74-11,25.22,25.22,0,0,0,1.42-8.78A30.12,30.12,0,0,0,366.12,67.47ZM353.19,84.34a8.25,8.25,0,0,1-7.08,3.24q-1.55,0-2.85-.12c-.87-.08-1.59-.16-2.15-.27V66.34a9.63,9.63,0,0,1,2.8-1.15,13.07,13.07,0,0,1,3.51-.46q8.15,0,8.16,11.08A14,14,0,0,1,353.19,84.34Z"/><polygon class="cls-1" points="224.42 55.81 216.34 67.28 208.26 55.81 195.86 55.81 210.14 76.08 195.86 96.36 208.26 96.36 216.34 84.89 224.42 96.36 236.81 96.36 222.53 76.08 236.81 55.81 224.42 55.81"/></svg>